<?xml version="1.0" encoding="UTF-8"?><svg id="Layer_1" xmlns="http://www.w3.org/2000/svg" viewBox="0 0 300 16.63"><defs><style>.cls-1{fill:none;stroke:#f5f5f5;stroke-linecap:round;stroke-linejoin:round;}</style></defs><path class="cls-1" d="m1,6.74c1.88,0,1.88,3.15,3.76,3.15s1.88-3.15,3.77-3.15,1.88,3.15,3.76,3.15,1.88-3.15,3.77-3.15,1.88,3.15,3.77,3.15,1.88-3.15,3.77-3.15,1.88,3.15,3.77,3.15,1.88-3.15,3.77-3.15,1.88,3.15,3.76,3.15,1.88-3.15,3.77-3.15,1.88,3.15,3.76,3.15,1.88-3.15,3.77-3.15,1.88,3.15,3.76,3.15,1.88-3.15,3.77-3.15,1.88,3.15,3.77,3.15,1.88-3.15,3.77-3.15,1.88,3.15,3.77,3.15,1.88-3.15,3.77-3.15,1.88,3.15,3.77,3.15,1.88-3.15,3.77-3.15,1.89,3.15,3.77,3.15,1.89-3.15,3.77-3.15"/></svg>