<?xml version="1.0" encoding="UTF-8"?><svg id="Layer_2" xmlns="http://www.w3.org/2000/svg" viewBox="0 0 300.13 16.42"><defs><style>.cls-1{fill:none;stroke:#f5f5f5;stroke-miterlimit:10;stroke-width:5px;}</style></defs><g id="Layer_1-2"><path class="cls-1" d="m0,2.5c6.82,0,6.82,11.42,13.64,11.42S20.46,2.5,27.28,2.5s6.82,11.42,13.64,11.42,6.82-11.42,13.64-11.42,6.82,11.42,13.64,11.42,6.82-11.42,13.64-11.42,6.82,11.42,13.64,11.42,6.82-11.42,13.64-11.42,6.82,11.42,13.64,11.42,6.82-11.42,13.64-11.42,6.82,11.42,13.64,11.42,6.82-11.42,13.64-11.42,6.82,11.42,13.64,11.42,6.82-11.42,13.64-11.42,6.82,11.42,13.64,11.42,6.82-11.42,13.64-11.42,6.82,11.42,13.64,11.42,6.82-11.42,13.64-11.42,6.82,11.42,13.65,11.42,6.82-11.42,13.64-11.42,6.83,11.42,13.65,11.42,6.83-11.42,13.65-11.42"/></g></svg>