<?xml version="1.0" encoding="UTF-8"?><svg id="Layer_2" xmlns="http://www.w3.org/2000/svg" viewBox="0 0 609.36 643.11"><defs><style>.cls-1{fill:#3f1919;}</style></defs><g id="Layer_1-2"><g><path class="cls-1" d="m125.84,440.31c30.94,22.07,81.33,13.64,102.14-19.13,21.43-33.75,3.88-78.99-22.97-103.81-27.25-25.2-72.05-37.36-108.53-30.13-42.29,8.39-82.76,49.23-93.14,90.56-23.71,94.43,83.44,177.73,165.84,193.09,97.79,18.24,199.57-43.11,259.83-116.5,39.3-47.87,67.37-104.63,86.72-163.22,9.93-30.07,18.06-61.02,24-92.13,5.86-30.68,5.11-60.75,7.51-91.67.44-5.73-8.45-6.1-8.9-.39-1.74,22.38-.47,44.7-3.46,67.03-3.23,24.11-8.84,47.86-15.01,71.36-11.87,45.21-27.68,89.41-49.76,130.71-43.38,81.12-113.96,151.63-203.39,179.71-83.94,26.36-172.65-7.07-227.22-74.6-30.1-37.26-42.24-88.22-14.68-130.51,23.22-35.63,62.07-60.63,105.25-55.55,44.56,5.24,90,32,97.18,79.82,3.75,24.98-4.73,47.77-27.73,59.97-22.03,11.69-48.25,12.62-68.96-2.16-4.66-3.33-9.39,4.22-4.73,7.55h0Z"/><path class="cls-1" d="m543.09,103.02c-16.36-18.94-21.84-39.81-23.41-64.37-.55-8.68.79-39.81,15.21-25.12,8.17,8.33,9.98,25.75,10.06,36.92.08,10.38-2.81,20.03-3.89,30.21-.38,3.54,1.68,20.23-1.5,22.32-4.95,3.26-23.55-10.78-28.29-14.19-7.05-5.07-13.3-9.91-15.32-19.23-1.57-7.28-2.76-10.35,2.69-6.15,14.67,11.28,22.97,27.95,32.5,43.13,3.28,5.22,8.25,11.9,14.36,6.22,1.68-1.56,2.03-4.8,2.87-6.64,2.59-5.66,6.2-11.05,10.46-15.57,6.31-6.7,13.82-14.26,22.95-15.48,9.88-1.32,16.96,6.13,10.08,16.26-3.83,5.64-12.27,9.76-18.22,11.69-9.14,2.96-24.65,8.68-33.42,3.26.21,2.35.43,4.7.64,7.06.62-.67,1.24-1.34,1.86-2,3.87-4.17-2.11-10.78-6.02-6.57-.62.67-1.24,1.34-1.86,2-1.93,2.08-1.98,5.43.64,7.06,13.39,8.28,32.91,1.58,46.42-4.13,10.64-4.49,28.73-18,25.45-31.64-2.8-11.64-17.17-13.09-26.93-12-9.96,1.11-13.79,5.33-20.93,11.98-3.47,3.23-6.94,6.09-10.02,9.73-2.67,3.16-5.09,9.6-8.23,12.06-2.08,1.63.11,3.23-2.18,2.66-2.02-.5-5.9-10.61-6.69-12.07-4.95-9.13-11.1-15.99-18.33-23.55-4.57-4.78-15.14-20.68-23.72-14.96-10.04,6.69-1.38,27.71,4.15,34.34,10.75,12.9,31.39,24.21,48.07,26.21,1.58.19,3.12-.83,3.97-2.08,4.67-6.89,2.99-19.43,3.67-27.45,1.04-12.26,4.23-24.02,3.56-36.52-.82-15.32-5.91-45.27-26.18-46.37-19.38-1.05-17.5,28.37-16.63,40.43,1.89,26.36,8.09,48.32,25.58,68.57,3.75,4.34,10.31-1.68,6.57-6.02h0Z"/><path class="cls-1" d="m524.19,212.18l.62,1.15c1.01-2.13,2.02-4.25,3.02-6.38-6.78,1.86-17.95-6.91-22.81-10.68-4.19-3.26-8.29-6.66-12.15-10.31-5.11-4.83-9.48-6.71-6.51-13.63,3.27-7.64,5.34-3.02,10.52,1.7,3.43,3.13,6.73,6.6,9.78,10.09,7.79,8.92,14.29,19.13,19.13,29.93,2.42-1.68,4.83-3.36,7.25-5.04-.21-.27-.42-.54-.63-.81-3.54-4.51-10.08,1.53-6.57,6.02.21.27.42.54.63.81,3.23,4.12,9.21-.66,7.25-5.04-4.58-10.24-45.5-74.96-59.16-45.98-6.67,14.15,8.86,25.86,18.28,33.81,8.39,7.09,24.42,21.25,36.87,17.83,2.7-.74,4.45-3.73,3.02-6.38-.21-.38-.41-.77-.62-1.15-2.72-5.05-10.65-.99-7.93,4.06h0Z"/><path class="cls-1" d="m524.41,217.1c.02.33.04.66.06.99.13,2.17,1.13,3.61,3.13,4.45,19.41,8.11,38.31,9.58,57.72.22,11.99-5.78,27.55-19.28,23.34-34.29-4.88-17.42-22.59-12.71-34.64-6.36-9.47,4.98-18.28,9.8-26.68,16.39-7.42,5.82-11.3,15.04-19.88,19.66,2.16,1.39,4.32,2.77,6.48,4.16.08-.58.17-1.16.25-1.74.82-5.68-8.08-6.02-8.9-.39-.08.58-.17,1.16-.25,1.74-.49,3.36,3.73,5.64,6.48,4.16,8.3-4.48,13.06-12.47,19.84-18.62,8.94-8.11,19.65-14.29,30.51-19.52,2.22-.9,4.43-1.79,6.65-2.69,3.86,3.73,7.72,7.45,11.57,11.18.33,2.36-4.76,7.83-6.22,9.4-5.29,5.7-12.43,9.42-19.76,11.83-15.36,5.04-29.38,2.43-43.89-3.63,1.04,1.48,2.09,2.97,3.13,4.45l-.06-.99c-.33-5.67-9.23-6.11-8.9-.39h0Z"/><path class="cls-1" d="m500.37,307.67c-9.23,4.28-28.85-5.91-35.91-11.02-7.93-5.74-14.68-12.88-19.02-21.71-2.63-5.34-7.58-18.75,4.3-13.29,9.5,4.36,19.02,19.86,25.68,27.17,6.04,6.63,17.97,17.44,19.45,26.67.91,5.68,9.61,3.76,8.71-1.88-1.06-6.62-6.94-12.75-10.92-18.02-8.29-10.97-17.99-20.91-27.29-31.04-6.15-6.69-23.48-25.16-31.77-10.65-8.09,14.17,10.37,37.1,19.77,45.28,11.15,9.7,35.71,23.53,51.06,16.42,5.21-2.42,1.13-10.34-4.06-7.93h0Z"/><path class="cls-1" d="m496.13,313.29c-.2.18-.4.36-.59.55,2.01,2.19,4.01,4.38,6.02,6.57,11.63-10.67,23.17-21.02,36.82-29.1,5.27-3.12,11.01-6.91,16.75-9.07,8.54-3.2,25.83-.89,18.12,12.77-7.89,13.98-30.4,17.17-44.79,17.13-4.76-.01-21.54,3.22-24.93.75-4.63-3.37-9.36,4.18-4.73,7.55,4.46,3.25,10.05,1.91,15.26,1.54,13.16-.95,25.94-1.31,38.94-4.25,13.45-3.04,31.96-14.41,32.69-30.04.78-16.69-18.01-18.68-30.3-15.03-22.73,6.76-42.87,25.6-59.86,41.18-4.22,3.87,1.79,10.44,6.02,6.57.2-.18.4-.36.59-.55,4.22-3.87-1.79-10.44-6.02-6.57h0Z"/><path class="cls-1" d="m458.04,394.93c-9.77,7.55-33.78-27.47-37.12-33.4-2.9-5.16-18.38-35.08-8.79-36.65,5.41-.88,14.15,10.19,17.15,14.16,4.64,6.14,7.99,13.23,10.95,20.29,3.01,7.17,5.52,14.54,8.36,21.78,2.73,6.97,7.26,13.86,8.98,21.12,1.32,5.58,10.03,3.7,8.71-1.88-2.69-11.31-9.33-22.09-13.47-33.05-4.53-11.97-9.12-24.03-16.97-34.28-5.69-7.44-28.35-28.45-35.42-11.72-6.29,14.87,10.69,42.9,18.6,53.89,8.28,11.51,29.09,38.63,45.04,26.31,4.53-3.5-1.51-10.05-6.02-6.57h0Z"/><path class="cls-1" d="m455.47,403.95c-4.68,10.58,16.6,18.18,23.72,20.69,20.27,7.12,42.57-1.13,58.05-14.81,13.88-12.27-.3-29.04-15.11-30.04-12.2-.82-25.35,3.86-37.49,5.33-11.47,1.39-19.3,7.19-29.77,10.99-5.38,1.95-1.26,9.86,4.06,7.93,5.63-2.04,10.29-5.7,16.01-7.66,6.19-2.12,12.39-2.42,18.84-3.15,7.15-.8,13.89-3.02,20.94-4.06,5.85-.86,6.86-.57,12.59,2.34,6.57,1,7.44,3.83,2.63,8.49-.72,3.93-2.87,6.47-6.45,7.62-10.44,8.71-23.58,12.69-37.03,9.75-1.68-.37-23.51-8.47-22.49-10.79,2.31-5.23-6.21-7.83-8.51-2.63h0Z"/><path class="cls-1" d="m375.62,493.65c-12.33-1.55-23.86-32.77-28.54-42.83-3.84-8.24-7.43-16.83-9.22-25.78-1.31-6.56-2.44-35.48,12.88-23.63,10.24,7.92,12.74,36.24,14.37,48.09,1.11,8.11,2.31,16.15,3.55,24.24.4,2.62,3.73,14.79,1.92,16.94-3.64,4.32,2.33,10.94,6.02,6.57,4.66-5.52,2.62-11.83,1.69-18.56-2.13-15.48-3.74-31.43-7.06-46.7-2.6-11.95-10.42-49.42-29.96-43.77-20.57,5.95-12.37,40.71-7.55,53.75,5.61,15.19,13.43,30.16,21.95,43.92,4.45,7.18,10.67,15.55,19.58,16.67,5.7.72,6.05-8.19.39-8.9h0Z"/><path class="cls-1" d="m374.7,495.21c-.3-.16-.61-.32-.91-.48-3.02-1.57-8.02.74-6.72,4.72,3.1,9.5,13.29,17.88,20.54,24.48,8.85,8.06,19.17,14.55,30.51,18.46,12.59,4.34,31.03,3.12,37.19-11.09,6.78-15.63-13.36-30.38-26.37-33.36-12.06-2.76-25.35-1.14-37.65-2.28-9.32-.86-19.16-2.01-27.93,2.02-2.06.95-3.17,4.01-1.94,5.99.23.38.47.75.7,1.13,3.01,4.84,10.96.81,7.93-4.06l-.7-1.13-1.94,5.99c11.68-5.37,27.86-.07,40.15.04,7.54.07,15.44-.7,22.72,1.85,7.3,2.55,19.1,11.27,16.12,19.75-5.39,15.31-27.24,6.91-36.79,1.65-7.03-3.87-13.42-8.84-19.1-14.5-4.4-4.39-12.79-10.89-14.74-16.84-2.24,1.57-4.48,3.14-6.72,4.72.3.16.61.32.91.48,5.04,2.62,9.83-4.89,4.73-7.55h0Z"/><path class="cls-1" d="m270.05,557.34c-10.44-15.58-10-43.93-11.4-61.98-.84-10.85-1.27-21.03,1.04-31.71.86-4,1.73-9,3.22-12.82.13-3.48,1.83-5.98,5.08-7.51,2.98-4.91,5.17-4.67,6.57.72,9.16,10.24,7.25,31.45,5.65,43.48-1.59,11.93-1.74,24.47-4.57,36.18-1.62,6.7-4.81,24.81-9.1,29.18-3.99,4.07,1.74,10.45,6.02,6.57.25-.23.51-.46.76-.69,4.24-3.85-1.77-10.42-6.02-6.57-.25.23-.51.46-.76.69,2.01,2.19,4.01,4.38,6.02,6.57,8.74-8.9,8.58-21.46,11.59-33.11,3.69-14.28,4.23-30.15,5.83-44.8,1.45-13.27-.72-45.22-16.32-51.53-18.25-7.39-23.03,30.16-24.27,40.8-1.79,15.4.76,31.81,2.69,47.12,1.73,13.73,2.14,31.69,10.03,43.47,3.16,4.71,11.12.7,7.93-4.06h0Z"/><path class="cls-1" d="m265.09,553.35c2.94,12.1,12,22.63,19.17,32.59,9.19,12.76,18.9,25.05,29.57,36.62,9.73,10.55,39.73,30.24,53.2,14.98,12.23-13.85-12.61-35.83-22.17-43.4-10.18-8.06-21.37-14.74-33.3-19.87-6.68-2.88-13.56-4.54-20.37-6.96-5.28-1.88-16.98-5.41-20.54-9.54-2.19,2.01-4.38,4.01-6.57,6.02.22.24.44.48.66.72,3.87,4.22,10.44-1.79,6.57-6.02-.22-.24-.44-.48-.66-.72-3.88-4.23-10.3,1.68-6.57,6.02,7.67,8.91,22.35,11.06,33.24,14.62,19.71,6.46,39.84,17.94,53.86,33.45,2.23,2.47,7.97,7.63,7.95,11.49-.08,14.1-11.28,9.22-17.94,7.04-12.23-4.01-19.7-12.47-27.88-21.79-6.8-7.75-13.13-15.83-19.22-24.14-7.23-9.87-17.36-20.84-20.31-32.99-1.35-5.57-10.06-3.7-8.71,1.88h0Z"/></g></g></svg>