<?xml version="1.0" encoding="UTF-8"?><svg id="Layer_2" xmlns="http://www.w3.org/2000/svg" viewBox="0 0 86.59 96.09"><defs><style>.cls-1{fill:none;stroke:#fff;stroke-miterlimit:10;stroke-width:1.53px;}.cls-2{fill:#fff;}.cls-3{fill:#d3554c;}.cls-4{fill:#1e1d1d;}.cls-5{fill:#23475d;}.cls-6{fill:#4c959a;}</style></defs><g id="OBJECTS"><g><g><path class="cls-3" d="M5.7,44.27c-1.2,1.35-3.26,1.47-4.61,.27-1.35-1.2-1.47-3.26-.27-4.61,1.2-1.35,3.26-1.47,4.61-.27s1.47,3.26,.27,4.61Z"/><path class="cls-6" d="M19.96,56.95c-1.2,1.35-3.26,1.47-4.61,.27s-1.47-3.26-.27-4.61c1.2-1.35,3.26-1.47,4.61-.27,1.35,1.2,1.47,3.26,.27,4.61Z"/><path class="cls-6" d="M48.48,82.31c-1.2,1.35-3.26,1.47-4.61,.27-1.35-1.2-1.47-3.26-.27-4.61s3.26-1.47,4.61-.27c1.35,1.2,1.47,3.26,.27,4.61Z"/><path class="cls-4" d="M62.74,94.99c-1.2,1.35-3.26,1.47-4.61,.27-1.35-1.2-1.47-3.26-.27-4.61,1.2-1.35,3.26-1.47,4.61-.27s1.47,3.26,.27,4.61Z"/></g><g><path class="cls-1" d="M31.47,44c-1.2,1.35-3.26,1.47-4.61,.27-1.35-1.2-1.47-3.26-.27-4.61,1.2-1.35,3.26-1.47,4.61-.27,1.35,1.2,1.47,3.26,.27,4.61Z"/><path class="cls-3" d="M45.73,56.69c-1.2,1.35-3.26,1.47-4.61,.27-1.35-1.2-1.47-3.26-.27-4.61s3.26-1.47,4.61-.27c1.35,1.2,1.47,3.26,.27,4.61Z"/><path class="cls-5" d="M59.99,69.37c-1.2,1.35-3.26,1.47-4.61,.27-1.35-1.2-1.47-3.26-.27-4.61,1.2-1.35,3.26-1.47,4.61-.27s1.47,3.26,.27,4.61Z"/></g><g><path class="cls-5" d="M42.99,31.06c-1.2,1.35-3.26,1.47-4.61,.27-1.35-1.2-1.47-3.26-.27-4.61s3.26-1.47,4.61-.27c1.35,1.2,1.47,3.26,.27,4.61Z"/><path class="cls-4" d="M57.25,43.74c-1.2,1.35-3.26,1.47-4.61,.27-1.35-1.2-1.47-3.26-.27-4.61,1.2-1.35,3.26-1.47,4.61-.27s1.47,3.26,.27,4.61Z"/><path class="cls-2" d="M71.5,56.42c-1.2,1.35-3.26,1.47-4.61,.27-1.35-1.2-1.47-3.26-.27-4.61,1.2-1.35,3.26-1.47,4.61-.27s1.47,3.26,.27,4.61Z"/><path class="cls-3" d="M85.76,69.1c-1.2,1.35-3.26,1.47-4.61,.27-1.35-1.2-1.47-3.26-.27-4.61,1.2-1.35,3.26-1.47,4.61-.27,1.35,1.2,1.47,3.26,.27,4.61Z"/></g><g><path class="cls-2" d="M40.24,5.43c-1.2,1.35-3.26,1.47-4.61,.27-1.35-1.2-1.47-3.26-.27-4.61s3.26-1.47,4.61-.27c1.35,1.2,1.47,3.26,.27,4.61Z"/><path class="cls-3" d="M68.76,30.8c-1.2,1.35-3.26,1.47-4.61,.27-1.35-1.2-1.47-3.26-.27-4.61,1.2-1.35,3.26-1.47,4.61-.27s1.47,3.26,.27,4.61Z"/><path class="landing-shapes" d="M83.02,43.48c-1.2,1.35-3.26,1.47-4.61,.27-1.35-1.2-1.47-3.26-.27-4.61,1.2-1.35,3.26-1.47,4.61-.27,1.35,1.2,1.47,3.26,.27,4.61Z"/></g></g></g></svg>