<?xml version="1.0" encoding="UTF-8"?><svg id="Layer_2" xmlns="http://www.w3.org/2000/svg" viewBox="0 0 95.18 103.65"><defs><style>.cls-1{fill:#010101;}.cls-2{fill:none;stroke:#ffaf00;stroke-miterlimit:10;stroke-width:1.77px;}</style></defs><g id="OBJECTS"><g><rect class="cls-2" x="17.57" y="26.89" width="63.45" height="63.45" rx="1.72" ry="1.72" transform="translate(55.89 -17.69) rotate(45)"/><g><g><circle class="cls-1" cx="50.16" cy=".99" r=".99"/><path class="cls-1" d="M61.87,12.7c-.39,.39-1.02,.39-1.4,0-.39-.39-.39-1.02,0-1.4,.39-.39,1.02-.39,1.4,0,.39,.39,.39,1.02,0,1.4Z"/><path class="cls-1" d="M72.88,23.71c-.39,.39-1.02,.39-1.4,0s-.39-1.02,0-1.4c.39-.39,1.02-.39,1.4,0,.39,.39,.39,1.02,0,1.4Z"/><path class="cls-1" d="M83.88,34.71c-.39,.39-1.02,.39-1.4,0s-.39-1.02,0-1.4c.39-.39,1.02-.39,1.4,0,.39,.39,.39,1.02,0,1.4Z"/><circle class="cls-1" cx="94.18" cy="45.01" r=".99"/></g><g><path class="cls-1" d="M41.03,11.53c-.39,.39-1.02,.39-1.4,0s-.39-1.02,0-1.4,1.02-.39,1.4,0c.39,.39,.39,1.02,0,1.4Z"/><path class="cls-1" d="M52.04,22.53c-.39,.39-1.02,.39-1.4,0s-.39-1.02,0-1.4,1.02-.39,1.4,0c.39,.39,.39,1.02,0,1.4Z"/><path class="cls-1" d="M63.04,33.54c-.39,.39-1.02,.39-1.4,0-.39-.39-.39-1.02,0-1.4,.39-.39,1.02-.39,1.4,0,.39,.39,.39,1.02,0,1.4Z"/><path class="cls-1" d="M74.05,44.54c-.39,.39-1.02,.39-1.4,0s-.39-1.02,0-1.4c.39-.39,1.02-.39,1.4,0,.39,.39,.39,1.02,0,1.4Z"/><circle class="cls-1" cx="84.35" cy="54.85" r=".99"/></g><g><path class="cls-1" d="M31.2,21.36c-.39,.39-1.02,.39-1.4,0-.39-.39-.39-1.02,0-1.4,.39-.39,1.02-.39,1.4,0,.39,.39,.39,1.02,0,1.4Z"/><path class="cls-1" d="M42.2,32.37c-.39,.39-1.02,.39-1.4,0s-.39-1.02,0-1.4,1.02-.39,1.4,0c.39,.39,.39,1.02,0,1.4Z"/><path class="cls-1" d="M53.21,43.37c-.39,.39-1.02,.39-1.4,0-.39-.39-.39-1.02,0-1.4,.39-.39,1.02-.39,1.4,0,.39,.39,.39,1.02,0,1.4Z"/><path class="cls-1" d="M64.21,54.38c-.39,.39-1.02,.39-1.4,0s-.39-1.02,0-1.4c.39-.39,1.02-.39,1.4,0,.39,.39,.39,1.02,0,1.4Z"/><path class="cls-1" d="M75.22,65.38c-.39,.39-1.02,.39-1.4,0s-.39-1.02,0-1.4,1.02-.39,1.4,0c.39,.39,.39,1.02,0,1.4Z"/></g><g><path class="cls-1" d="M21.36,31.2c-.39,.39-1.02,.39-1.4,0-.39-.39-.39-1.02,0-1.4,.39-.39,1.02-.39,1.4,0,.39,.39,.39,1.02,0,1.4Z"/><path class="cls-1" d="M32.37,42.2c-.39,.39-1.02,.39-1.4,0-.39-.39-.39-1.02,0-1.4s1.02-.39,1.4,0c.39,.39,.39,1.02,0,1.4Z"/><path class="cls-1" d="M43.37,53.21c-.39,.39-1.02,.39-1.4,0-.39-.39-.39-1.02,0-1.4,.39-.39,1.02-.39,1.4,0,.39,.39,.39,1.02,0,1.4Z"/><path class="cls-1" d="M54.38,64.21c-.39,.39-1.02,.39-1.4,0-.39-.39-.39-1.02,0-1.4,.39-.39,1.02-.39,1.4,0,.39,.39,.39,1.02,0,1.4Z"/><path class="cls-1" d="M65.38,75.22c-.39,.39-1.02,.39-1.4,0-.39-.39-.39-1.02,0-1.4,.39-.39,1.02-.39,1.4,0,.39,.39,.39,1.02,0,1.4Z"/></g><g><path class="cls-1" d="M11.53,41.03c-.39,.39-1.02,.39-1.4,0-.39-.39-.39-1.02,0-1.4,.39-.39,1.02-.39,1.4,0s.39,1.02,0,1.4Z"/><path class="cls-1" d="M22.53,52.04c-.39,.39-1.02,.39-1.4,0-.39-.39-.39-1.02,0-1.4s1.02-.39,1.4,0,.39,1.02,0,1.4Z"/><path class="cls-1" d="M33.54,63.04c-.39,.39-1.02,.39-1.4,0-.39-.39-.39-1.02,0-1.4,.39-.39,1.02-.39,1.4,0,.39,.39,.39,1.02,0,1.4Z"/><path class="cls-1" d="M44.54,74.05c-.39,.39-1.02,.39-1.4,0-.39-.39-.39-1.02,0-1.4,.39-.39,1.02-.39,1.4,0s.39,1.02,0,1.4Z"/><path class="cls-1" d="M55.55,85.05c-.39,.39-1.02,.39-1.4,0-.39-.39-.39-1.02,0-1.4,.39-.39,1.02-.39,1.4,0,.39,.39,.39,1.02,0,1.4Z"/></g><g><path class="cls-1" d="M1.7,50.87c-.39,.39-1.02,.39-1.4,0-.39-.39-.39-1.02,0-1.4,.39-.39,1.02-.39,1.4,0s.39,1.02,0,1.4Z"/><path class="cls-1" d="M12.7,61.87c-.39,.39-1.02,.39-1.4,0-.39-.39-.39-1.02,0-1.4s1.02-.39,1.4,0,.39,1.02,0,1.4Z"/><path class="cls-1" d="M23.71,72.88c-.39,.39-1.02,.39-1.4,0-.39-.39-.39-1.02,0-1.4,.39-.39,1.02-.39,1.4,0,.39,.39,.39,1.02,0,1.4Z"/><path class="cls-1" d="M34.71,83.88c-.39,.39-1.02,.39-1.4,0-.39-.39-.39-1.02,0-1.4,.39-.39,1.02-.39,1.4,0s.39,1.02,0,1.4Z"/><path class="cls-1" d="M45.71,94.89c-.39,.39-1.02,.39-1.4,0-.39-.39-.39-1.02,0-1.4,.39-.39,1.02-.39,1.4,0s.39,1.02,0,1.4Z"/></g></g></g></g></svg>