<?xml version="1.0" encoding="UTF-8"?><svg id="Layer_2" xmlns="http://www.w3.org/2000/svg" viewBox="0 0 305.13 16.42"><defs><style>.cls-1{fill:none;stroke:#ecbc69;stroke-linecap:round;stroke-linejoin:round;stroke-width:5px;}</style></defs><g id="Layer_1-2"><path class="cls-1" d="m2.5,2.5c6.82,0,6.82,11.42,13.64,11.42S22.96,2.5,29.78,2.5s6.82,11.42,13.64,11.42,6.82-11.42,13.64-11.42,6.82,11.42,13.64,11.42,6.82-11.42,13.64-11.42,6.82,11.42,13.64,11.42,6.82-11.42,13.64-11.42,6.82,11.42,13.64,11.42,6.82-11.42,13.64-11.42,6.82,11.42,13.64,11.42,6.82-11.42,13.64-11.42,6.82,11.42,13.64,11.42,6.82-11.42,13.64-11.42,6.82,11.42,13.64,11.42,6.82-11.42,13.64-11.42,6.82,11.42,13.64,11.42,6.82-11.42,13.64-11.42,6.82,11.42,13.65,11.42,6.82-11.42,13.64-11.42,6.83,11.42,13.65,11.42,6.83-11.42,13.65-11.42"/></g></svg>