<?xml version="1.0" encoding="UTF-8"?><svg id="Layer_2" xmlns="http://www.w3.org/2000/svg" viewBox="0 0 101.7 106.92"><defs><style>.cls-1{stroke:#23475d;}.cls-1,.cls-2{stroke-width:1.15px;}.cls-1,.cls-2,.cls-3{fill:none;stroke-linecap:round;stroke-linejoin:round;}.cls-2{stroke:#010101;}.cls-3{stroke:#d3554c;stroke-width:1.53px;}</style></defs><g id="OBJECTS"><g><line class="cls-1" x1="27.29" y1="85.64" x2="31.43" y2="89.78"/><line class="cls-1" x1="13.1" y1="71.45" x2="20.7" y2="79.05"/><line class="cls-1" x1="25.98" y1="72.37" x2="54.6" y2="100.99"/><line class="cls-1" x1="11.39" y1="57.77" x2="17.19" y2="63.58"/><line class="cls-3" x1="46.55" y1="80.98" x2="71.73" y2="106.16"/><line class="cls-3" x1="8.55" y1="42.98" x2="35.4" y2="69.83"/><line class="cls-1" x1="29.6" y1="52.07" x2="74.05" y2="96.52"/><line class="cls-2" x1="11.22" y1="33.69" x2="20.63" y2="43.1"/><line class="cls-1" x1="66.3" y1="76.81" x2="76.99" y2="87.49"/><line class="cls-1" x1=".58" y1="11.08" x2="55.07" y2="65.57"/><line class="cls-3" x1="44.28" y1="42.83" x2="97.51" y2="96.06"/><line class="cls-3" x1="20.77" y1="19.32" x2="33.14" y2="31.68"/><line class="cls-1" x1="54.61" y1="41.2" x2="89" y2="75.58"/><line class="cls-1" x1="19.51" y1="6.09" x2="44.92" y2="31.5"/><line class="cls-3" x1="82.98" y1="57.6" x2="100.94" y2="75.56"/><line class="cls-3" x1="35.04" y1="9.66" x2="69.93" y2="44.55"/><line class="cls-1" x1="65.58" y1="28.24" x2="89.84" y2="52.5"/><line class="cls-1" x1="37.92" y1=".58" x2="56.06" y2="18.72"/><line class="cls-3" x1="87.14" y1="37.84" x2="96.58" y2="47.28"/><line class="cls-3" x1="52.43" y1="3.13" x2="76.36" y2="27.06"/><line class="cls-1" x1="82.24" y1="20.98" x2="88.04" y2="26.78"/><line class="cls-1" x1="72.06" y1="10.79" x2="76.06" y2="14.79"/></g></g></svg>